<?xml version="1.0" encoding="iso-8859-1"?>
<!-- Generator: Adobe Illustrator 19.0.0, SVG Export Plug-In . SVG Version: 6.00 Build 0)  -->
<svg version="1.1" id="Capa_1" xmlns="http://www.w3.org/2000/svg" xmlns:xlink="http://www.w3.org/1999/xlink" x="0px" y="0px"
	 viewBox="0 0 512 512" style="enable-background:new 0 0 512 512;" xml:space="preserve">
<path style="fill:#ECEFF1;" d="M352,192H32c-8.837,0-16,7.163-16,16c0,5.036,2.371,9.778,6.4,12.8L80,264v216
	c0,17.673,14.327,32,32,32h224c17.673,0,32-14.327,32-32V208C368,199.163,360.837,192,352,192z"/>
<g>
	<rect x="112" y="384" style="fill:#8D6E63;" width="224" height="96"/>
	<polygon style="fill:#8D6E63;" points="336,496 336.032,480 336,480 	"/>
</g>
<g>
	<circle style="fill:#607D8B;" cx="224" cy="48" r="48"/>
	<path style="fill:#607D8B;" d="M144,80h160c35.346,0,64,28.654,64,64l0,0l0,0H80l0,0l0,0C80,108.654,108.654,80,144,80z"/>
</g>
<path d="M336,512H112c-17.673,0-32-14.327-32-32V264l-57.6-43.2c-7.069-5.302-8.502-15.331-3.2-22.4c3.022-4.029,7.764-6.4,12.8-6.4
	h320c8.837,0,16,7.163,16,16v272C368,497.673,353.674,512,336,512z M80,224l25.6,19.2c4.029,3.022,6.4,7.764,6.4,12.8v224h224V224
	H80z"/>
<path d="M224,96c-26.51,0-48-21.49-48-48s21.49-48,48-48s48,21.49,48,48S250.51,96,224,96z M224,32c-8.837,0-16,7.163-16,16
	s7.163,16,16,16s16-7.163,16-16S232.837,32,224,32z"/>
<path d="M352,160H96c-8.837,0-16-7.163-16-16c0-44.183,35.817-80,80-80h128c44.183,0,80,35.817,80,80
	C368,152.837,360.837,160,352,160z M114.752,128h218.496c-6.78-19.176-24.909-31.997-45.248-32H160
	C139.661,96.003,121.532,108.824,114.752,128z"/>
<path d="M224,416c-8.837,0-16-7.163-16-16V144c0-8.837,7.163-16,16-16s16,7.163,16,16v256C240,408.837,232.837,416,224,416z"/>
<path d="M288,416H160c-8.837,0-16-7.163-16-16s7.163-16,16-16h128c8.837,0,16,7.163,16,16S296.837,416,288,416z"/>
<path d="M416,416h-64c-8.837,0-16-7.163-16-16V208c0-8.837,7.163-16,16-16h64c44.183,0,80,35.817,80,80v64
	C496,380.183,460.183,416,416,416z M368,384h48c26.51,0,48-21.49,48-48v-64c0-26.51-21.49-48-48-48h-48V384z"/>
<g>
</g>
<g>
</g>
<g>
</g>
<g>
</g>
<g>
</g>
<g>
</g>
<g>
</g>
<g>
</g>
<g>
</g>
<g>
</g>
<g>
</g>
<g>
</g>
<g>
</g>
<g>
</g>
<g>
</g>
</svg>
