<?xml version="1.0" encoding="iso-8859-1"?>
<!-- Generator: Adobe Illustrator 19.0.0, SVG Export Plug-In . SVG Version: 6.00 Build 0)  -->
<svg version="1.1" id="Capa_1" xmlns="http://www.w3.org/2000/svg" xmlns:xlink="http://www.w3.org/1999/xlink" x="0px" y="0px"
	 viewBox="0 0 512 512" style="enable-background:new 0 0 512 512;" xml:space="preserve">
<g>
	<path style="fill:#F0F0F0;" d="M10,144.277h411.643v-5.653v-36.621v-4.244c0-4.054-3.316-7.371-7.371-7.371h-396.9
		c-4.055,0-7.371,3.317-7.371,7.371v46.518H10z"/>
	<path style="fill:#AD826E;" d="M421.643,144.277H10c0,78.499,44.324,146.69,109.413,181.111
		c28.76,15.21,61.573,23.827,96.408,23.827c37.3,0,72.281-9.879,102.45-27.153C380.046,286.693,421.643,220.323,421.643,144.277z"/>
	<path style="fill:#F0F0F0;" d="M215.821,349.215c-34.835,0-67.648-8.617-96.408-23.827c-8.008,7.955-25.787,17.142-25.787,25.752
		v12.367c0,10.689,8.744,19.434,19.433,19.434h216.797c-1.65-12.761,2.399-26.821,11.002-40.099
		c-2.759-5.785-12.939-2.267-22.586-20.779C288.102,339.336,253.121,349.215,215.821,349.215z"/>
	<path style="fill:#D8D8E7;" d="M329.855,382.941H113.059H56.814c-9.17,0-16.672,7.502-16.672,16.671v3.561
		c0,9.169,7.502,16.671,16.672,16.671h311.053c-10.701-2.322-19.906-6.915-26.644-13.671c-2.866-2.875-5.285-6.14-7.183-9.789
		C331.838,392.146,330.462,387.631,329.855,382.941z"/>
	<g>
		<path style="fill:#AD826E;" d="M340.857,342.842c-8.603,13.278-12.652,27.338-11.002,40.099c0.606,4.691,1.982,9.206,4.185,13.442
			c1.897,3.649,4.316,6.915,7.183,9.789c21.265-61.611,105.03-31.018,136.286-103.994c-20.763-15.882-58.092-15.832-92.834,2.234
			C365.517,314.375,350.391,328.129,340.857,342.842z"/>
		<path style="fill:#AD826E;" d="M477.51,302.178c-31.256,72.976-115.022,42.383-136.286,103.994
			c6.737,6.757,15.942,11.349,26.644,13.671c20.34,4.415,46.084,0.626,70.545-12.094c42.804-22.259,65.473-63.435,50.635-91.971
			C486.252,310.405,482.326,305.863,477.51,302.178z"/>
	</g>
	<path style="fill:#F0F0F0;" d="M410.176,211.994l-14.986,33.043C444.261,268.009,502,232.382,502,177.032
		c0-46.012-36.279-75.194-80.357-75.029v36.621c23.239-3.186,44.086,14.805,44.086,38.409
		C465.728,205.811,435.554,224.202,410.176,211.994z"/>
</g>
<path d="M99.553,230.21c-13.558-17.393-22.002-34.596-25.1-51.131c-1.017-5.429-6.245-9.004-11.67-7.988
	c-5.429,1.017-9.005,6.242-7.988,11.67c3.692,19.706,13.443,39.807,28.984,59.745c1.972,2.529,4.918,3.853,7.894,3.853
	c2.149,0,4.314-0.69,6.141-2.113C102.169,240.849,102.948,234.566,99.553,230.21z"/>
<path d="M118.519,251.231c-3.96-3.85-10.291-3.76-14.141,0.2c-3.85,3.96-3.76,10.291,0.2,14.141l0.558,0.539
	c1.94,1.871,4.441,2.8,6.939,2.8c2.621,0,5.238-1.024,7.201-3.06c3.833-3.977,3.717-10.307-0.26-14.14L118.519,251.231z"/>
<path d="M437.973,280.55c-19.027,0-39.052,5.184-57.911,14.99c-16.737,8.704-31.08,20.341-41.65,33.613
	c-1.907-0.874-3.858-1.921-5.914-3.986c12.824-8.24,24.867-17.889,35.916-28.891c11.916-11.865,22.254-24.88,30.938-38.782
	c8.936,3.078,18.209,4.609,27.466,4.609c15.927,0,31.806-4.521,45.833-13.443C497.29,232.99,512,206.213,512,177.032
	c0-23.271-8.22-43.761-23.772-59.255c-14.798-14.742-34.941-23.578-57.453-25.409c-2.274-6.945-8.808-11.98-16.504-11.98h-396.9
	C7.792,80.388,0,88.181,0,97.759v46.518c0,57.42,22.455,111.401,63.228,151.999c11.781,11.73,24.689,21.927,38.473,30.511
	c-9.176,6.903-18.075,14.191-18.075,24.353v12.367c0,3.299,0.554,6.47,1.559,9.434H56.814c-14.707,0-26.672,11.964-26.672,26.671
	v3.561c0,14.707,11.965,26.671,26.672,26.671h309.922c5.753,1.162,11.898,1.768,18.378,1.768h0.007
	c19.023,0,39.046-5.184,57.905-14.99c22.434-11.666,40.574-28.6,51.08-47.681c11.228-20.394,12.582-40.913,3.813-57.776
	C487.801,291.708,465.951,280.55,437.973,280.55z M389.29,313.284c15.792-8.212,33.081-12.734,48.683-12.734
	c10.306,0,19.34,1.88,26.603,5.378c-14.949,27.33-39.288,35.437-64.941,43.961c-22.152,7.361-44.903,14.935-59.136,35.548
	c-2.461-9.594-0.417-20.907,6.004-32.571C355.124,337.206,370.32,323.149,389.29,313.284z M431.589,148.653
	c5.246,0.86,10.21,3.151,14.3,6.719c6.253,5.455,9.84,13.349,9.84,21.66c0,10.071-4.895,18.924-13.43,24.29
	c-5.952,3.742-12.842,5.152-19.506,4.184C428.212,187.246,431.2,168.165,431.589,148.653z M492,177.032
	c0,22.304-11.246,42.772-30.082,54.752c-15.93,10.132-34.957,12.857-52.584,7.883c2.458-4.934,4.717-9.958,6.78-15.062
	c3.552,0.814,7.164,1.221,10.772,1.221c9.041,0,18.058-2.543,26.057-7.572c14.267-8.969,22.785-24.379,22.785-41.222
	c0-14.09-6.084-27.479-16.693-36.732c-7.747-6.758-17.347-10.819-27.393-11.794v-15.958c16.761,1.856,31.596,8.564,42.47,19.398
	C485.814,143.605,492,159.195,492,177.032z M411.643,100.388v33.889H20v-33.889C20,100.388,411.643,100.388,411.643,100.388z
	 M20.254,154.277h391.134c-5.245,102.862-90.958,184.938-195.567,184.938S25.499,257.139,20.254,154.277z M103.626,363.507v-11.714
	c1.406-2.522,8.176-7.587,11.878-10.357c1.78-1.332,3.585-2.686,5.32-4.057c29.2,14.279,61.514,21.836,94.997,21.836
	c35.043,0,68.805-8.276,99.056-23.875c4.472,5.782,8.939,8.818,12.605,10.736c-4.586,9.076-7.216,18.142-7.865,26.864H113.059
	C107.857,372.941,103.626,368.709,103.626,363.507z M50.143,403.173v-3.561c0-3.616,3.055-6.671,6.672-6.671h265.019
	c0.872,2.763,1.982,5.453,3.336,8.056c1.651,3.175,3.621,6.125,5.873,8.847H56.814C53.198,409.844,50.143,406.789,50.143,403.173z
	 M433.798,398.877c-15.792,8.212-33.079,12.735-48.678,12.734h-0.005c-5.297,0-10.25-0.507-14.809-1.462
	c-0.184-0.046-0.367-0.091-0.555-0.127c-6.37-1.397-11.934-3.701-16.495-6.827c9.766-20.056,28.95-26.439,52.685-34.326
	c25.981-8.634,55.014-18.298,73.809-49.211c0.138,0.247,0.294,0.482,0.424,0.733C492.237,343.59,470.999,379.532,433.798,398.877z"
	/>
<g>
</g>
<g>
</g>
<g>
</g>
<g>
</g>
<g>
</g>
<g>
</g>
<g>
</g>
<g>
</g>
<g>
</g>
<g>
</g>
<g>
</g>
<g>
</g>
<g>
</g>
<g>
</g>
<g>
</g>
</svg>
